<?xml version="1.0" encoding="utf-8"?>
<!-- Generator: Adobe Illustrator 15.0.0, SVG Export Plug-In . SVG Version: 6.00 Build 0)  -->
<!DOCTYPE svg PUBLIC "-//W3C//DTD SVG 1.1//EN" "http://www.w3.org/Graphics/SVG/1.1/DTD/svg11.dtd">
<svg version="1.1" id="Layer_1" xmlns="http://www.w3.org/2000/svg" xmlns:xlink="http://www.w3.org/1999/xlink" x="0px" y="0px"
	 width="1200px" height="800px" viewBox="0 0 1200 800" enable-background="new 0 0 1200 800" xml:space="preserve">
<g>
	<path fill="#727272" d="M0,410C4.923,163.022,8,29.689,9.231,10c2.769-44.3,6.461,94.167,9.23,104.667
		c2.77,10.5,6.461-74.417,9.231-34.667c2.769,39.75,6.461,253.817,9.23,299.667c2.77,45.85,6.462,2.2,9.231,6
		c2.769,3.8,6.461,15.683,9.231,19.333c2.769,3.65,6.461,4.75,9.23,5c2.77,0.25,6.462-3.333,9.231-3.333s6.461,20.983,9.231,3.333
		c2.769-17.65,6.461-121,9.23-121c2.77,0,6.461,102.85,9.231,121c2.769,18.15,6.461,0.4,9.23,0c2.77-0.4,6.462-2.667,9.231-2.667
		s6.461,2.367,9.231,2.667c2.769,0.3,6.461-0.667,9.23-0.667c2.77,0,6.461,1.417,9.231,0.667c2.769-0.75,6.461-5.667,9.23-5.667
		c2.77,0,6.462,5.367,9.231,5.667s6.461-3.667,9.231-3.667c2.769,0,6.461,3.617,9.23,3.667c2.77,0.05,6.462-3.333,9.231-3.333
		s6.461,2.833,9.231,3.333c2.769,0.5,6.461,0.4,9.23,0c2.77-0.4,6.461-2.366,9.231-2.667c2.769-0.3,6.461,0.267,9.23,0.667
		c2.77,0.4,6.462,1.7,9.231,2s6.461,0,9.231,0c2.769,0,6.461,0.5,9.23,0c2.77-0.5,6.461-3.333,9.231-3.333
		c2.769,0,6.461,2.833,9.23,3.333c2.77,0.5,6.462,0.35,9.231,0s6.461-2.333,9.231-2.333c2.769,0,6.461,1.983,9.23,2.333
		c2.77,0.35,6.462,0,9.23,0c2.77,0,6.462,0.25,9.231,0c2.769-0.25,6.461-1.616,9.23-1.667c2.77-0.05,6.462,1.084,9.23,1.334
		c2.77,0.25,6.462,0.283,9.231,0.333c2.769,0.05,6.461,0,9.23,0s6.462,0,9.23,0c2.77,0,6.462,0,9.231,0c2.769,0,6.461,0.15,9.23,0
		s6.462-0.85,9.23-1c2.77-0.15,6.462-0.15,9.231,0c2.769,0.15,6.461,1.7,9.23,1s6.461-5.467,9.23-5.667
		c2.77-0.199,6.462,3.483,9.23,4.334c2.77,0.85,6.462,1.133,9.231,1.333c2.769,0.2,6.461,0,9.23,0s6.462,0,9.23,0
		c2.77,0,6.462,0,9.231,0c2.769,0,6.461,0,9.23,0s6.462,0,9.23,0c2.77,0,6.462,0,9.231,0c2.769,0,6.461,2.5,9.23,0
		s6.462-16.667,9.23-16.667c2.77,0,6.462,14.167,9.231,16.667c2.769,2.5,6.461,0,9.23,0s6.461,0,9.23,0s6.462,7,9.23,0
		c2.77-7,6.462-46.667,9.231-46.667c2.769,0,6.461,39.667,9.23,46.667s6.462,0,9.23,0c2.77,0,6.462,0,9.231,0
		c2.769,0,6.461,0.45,9.23,0s6.462-0.9,9.23-3c2.77-2.1,6.462-8.8,9.231-11c2.769-2.2,6.461-1.317,9.23-3.667
		c2.77-2.35,6.462-13.5,9.23-12c2.77,1.5,6.462,18.8,9.231,22c2.769,3.2,6.461-1.816,9.23-0.666c2.77,1.149,6.461,7.633,9.23,8.333
		s6.462-3.066,9.23-3.667c2.77-0.6,6.462-0.883,9.231-0.333c2.769,0.55,6.461,3.4,9.23,4s6.462,0,9.23,0c2.77,0,6.462,0.5,9.231,0
		c2.769-0.5,6.461-3.333,9.23-3.333s6.462,2.833,9.23,3.333c2.77,0.5,6.462,1.15,9.231,0c2.769-1.15,6.461-2.116,9.23-7.667
		c2.77-5.55,6.462-24.083,9.23-29.333c2.77-5.25,6.462-5.967,9.231-5.667c2.769,0.3,6.461,5.066,9.23,7.667s6.461,6.467,9.23,9.667
		c2.77,3.2,6.462,7.967,9.23,11.667c2.77,3.7,6.462,11,9.231,13c2.769,2,6.461,1.884,9.23,0.334
		c2.77-1.551,6.462-10.717,9.23-10.667c2.77,0.05,6.462,9.45,9.231,11c2.769,1.55,6.461,4.483,9.23-0.667
		c2.77-5.149,6.462-33.766,9.23-33.667c2.77,0.1,6.462,29.683,9.231,34.333c2.769,4.65,6.461-3.134,9.23-3.333
		c2.77-0.2,6.462,3,9.23,2c2.77-1,6.462-8.817,9.231-8.667c2.769,0.15,6.461,9.267,9.23,9.667c2.77,0.399,6.461-5.9,9.23-7
		c2.77-1.101,6.462-1.233,9.23-0.334c2.77,0.9,6.462,7.884,9.231,6.334c2.769-1.551,6.461-16.867,9.23-16.667s6.462,15.3,9.23,18
		c2.77,2.7,6.462,0,9.231,0c2.769,0,6.461,2.45,9.23,0s6.462-14.383,9.23-16.333c2.77-1.95,6.462,1.383,9.231,3.333
		c2.769,1.95,6.461,8.566,9.23,9.667c2.77,1.1,6.462-1.134,9.23-2.334c2.77-1.199,6.462-6.517,9.231-5.666
		c2.769,0.85,6.461,9.733,9.23,11.333s6.461,0.184,9.23-0.667c2.77-0.85,6.462-2.949,9.23-5c2.77-2.05,6.462-8.516,9.231-8.667
		c2.769-0.15,6.461,5.517,9.23,7.667c2.77,2.15,6.462,7.067,9.23,6.667c2.77-0.4,6.462-9.333,9.231-9.333s6.461,9.183,9.23,9.333
		s6.462-8.333,9.23-8.333c2.77,0,6.462,7.083,9.231,8.333c2.769,1.25,6.461,0.25,9.23,0c2.769-0.25,6.462-1.667,9.23-1.667
		c2.77,0,6.462,1.417,9.231,1.667c2.769,0.25,6.461,0,9.23,0s6.461,0.4,9.23,0s6.462-2.667,9.23-2.667
		c2.77,0,6.462,2.267,9.231,2.667c1.23,0.178,4.308,0.178,9.23,0"/>
	<rect y="410" fill="#FFFFFF" width="1200" height="157.5"/>
</g>
<g>
	<path fill="#BFBFBF" d="M0,410.333C4.923,425.289,8,433.845,9.231,436c2.769,4.85,6.461,10.566,9.23,6.667
		c2.77-3.9,6.461-27.767,9.231-32.667c2.769-4.9,6.461,0,9.23,0c2.77,0,6.462,0,9.231,0s6.461,0,9.231,0c2.769,0,6.461,0,9.23,0
		c2.77,0,6.462,0,9.231,0s6.461-2.2,9.231,0c2.769,2.2,6.461,14.366,9.23,14.667c2.77,0.3,6.461-10.467,9.231-12.667
		c2.769-2.2,6.461-1.7,9.23-2c2.77-0.3,6.462,0,9.231,0s6.461-0.2,9.231,0c2.769,0.2,6.461,1.283,9.23,1.333
		c2.77,0.051,6.461-0.8,9.231-1c2.769-0.199,6.461-0.283,9.23-0.333c2.77-0.05,6.462,0,9.231,0s6.461,0,9.231,0
		c2.769,0,6.461,0,9.23,0c2.77,0,6.462,0,9.231,0s6.461,0,9.231,0c2.769,0,6.461,0,9.23,0c2.77,0,6.461,0,9.231,0
		c2.769,0,6.461,0,9.23,0c2.77,0,6.462,0,9.231,0s6.461,0,9.231,0c2.769,0,6.461,0,9.23,0c2.77,0,6.461,0,9.231,0
		c2.769,0,6.461,0,9.23,0c2.77,0,6.462,0,9.231,0s6.461,0,9.231,0c2.769,0,6.461,0,9.23,0c2.77,0,6.462-0.15,9.23,0
		c2.77,0.15,6.462,0.95,9.231,1c2.769,0.05,6.461-0.517,9.23-0.667c2.77-0.149,6.462-0.283,9.23-0.333c2.77-0.05,6.462,0,9.231,0
		c2.769,0,6.461,0,9.23,0s6.462,0,9.23,0c2.77,0,6.462,0,9.231,0c2.769,0,6.461,0,9.23,0s6.462,0,9.23,0c2.77,0,6.462,0,9.231,0
		c2.769,0,6.461,0,9.23,0s6.461,0,9.23,0s6.462,0,9.23,0c2.77,0,6.462,0,9.231,0c2.769,0,6.461,0,9.23,0s6.462,0,9.23,0
		c2.77,0,6.462,0,9.231,0c2.769,0,6.461,0,9.23,0s6.462-0.05,9.23,0c2.77,0.05,6.462,0.283,9.231,0.333
		c2.769,0.051,6.461,0.051,9.23,0c2.77-0.05,6.462-0.283,9.23-0.333c2.77-0.05,6.462,0,9.231,0c2.769,0,6.461-0.4,9.23,0
		s6.461,2.667,9.23,2.667s6.462-2.867,9.23-2.667c2.77,0.2,6.462,3.9,9.231,4c2.769,0.1,6.461-2.833,9.23-3.333s6.462-0.551,9.23,0
		c2.77,0.55,6.462,3.666,9.231,3.666c2.769,0,6.461-3.566,9.23-3.666c2.77-0.101,6.462,1.949,9.23,3c2.77,1.05,6.462,2.449,9.231,4
		c2.769,1.55,6.461,3.833,9.23,6.333s6.462,12.283,9.23,10.333c2.77-1.949,6.462-20.133,9.231-23.333c2.769-3.2,6.461,2.15,9.23,2
		s6.461-2.85,9.23-3s6.462,1.75,9.23,2c2.77,0.25,6.462-0.384,9.231-0.333c2.769,0.05,6.461,0.267,9.23,0.666
		c2.77,0.4,6.462,2.25,9.23,2c2.77-0.25,6.462-3.017,9.231-3.666c2.769-0.65,6.461-0.617,9.23-0.667s6.462,0.283,9.23,0.333
		c2.77,0.051,6.462-0.149,9.231,0c2.769,0.15,6.461,0.45,9.23,1c2.77,0.551,6.462,1.217,9.23,2.667c2.77,1.45,6.462,6.75,9.231,7
		c2.769,0.25,6.461-3.783,9.23-5.333c2.77-1.551,6.461-4.5,9.23-5s6.462,0.967,9.23,1.666c2.77,0.7,6.462,1.551,9.231,3
		c2.769,1.45,6.461,6.567,9.23,6.667s6.462-4.5,9.23-6c2.77-1.5,6.462-3.6,9.231-4c2.769-0.4,6.461,1.384,9.23,1.333
		c2.77-0.05,6.462-1.616,9.23-1.666c2.77-0.051,6.462,1.383,9.231,1.333c2.769-0.05,6.461-1.517,9.23-1.667
		c2.77-0.149,6.462,0.817,9.23,0.667c2.77-0.15,6.462-2.566,9.231-1.667c2.769,0.9,6.461,7.267,9.23,7.667s6.461-4.8,9.23-5
		s6.462,3.467,9.23,3.667c2.77,0.199,6.462-2.184,9.231-2.334c2.769-0.149,6.461,1.983,9.23,1.334c2.77-0.65,6.462-5.667,9.23-5.667
		c2.77,0,6.462,5.667,9.231,5.667c2.769,0,6.461-4.817,9.23-5.667s6.462-0.6,9.23,0c2.77,0.6,6.462,3.25,9.231,4
		c2.769,0.75,6.461,0.85,9.23,1s6.462,0.3,9.23,0c2.77-0.3,6.462-1.8,9.231-2c2.769-0.2,6.461,1.066,9.23,0.667
		c2.77-0.4,6.461-2.783,9.23-3.334c2.77-0.55,6.462-0.383,9.23-0.333c2.77,0.05,6.462,0.167,9.231,0.667
		c2.769,0.5,6.461,2.616,9.23,2.666c2.77,0.051,6.462-2.233,9.23-2.333c2.77-0.1,6.462,1.816,9.231,1.667
		c2.77-0.15,6.461-3.817,9.23-2.667s6.462,10.333,9.23,10.333c2.77,0,6.462-8.783,9.231-10.333c2.769-1.55,6.461-0.15,9.23,0
		c2.769,0.15,6.462,1,9.23,1c2.77,0,6.462-0.85,9.231-1c2.769-0.15,6.461,0,9.23,0s6.461,0,9.23,0s6.462,0,9.23,0
		c2.77,0,6.462,0,9.231,0c1.23,0,4.308,0,9.23,0"/>
</g>
</svg>
